<?xml version="1.0" encoding="utf-8"?>
<svg xmlns="http://www.w3.org/2000/svg" xmlns:xlink="http://www.w3.org/1999/xlink" version= "1.1" width="1920px" height="1300px" viewBox="-600 64 1920 1300">
<g id="layer1">
<g style="fill:rgb(0,174,199); fill-opacity:1.0; stroke-linejoin: miter">
<path d="M-600.001,62.20554C-600.4766,62.20554,-600.9328,62.394497,-601.26917,62.730835C-601.6055,63.067173,-601.79443,63.523346,-601.79443,63.999L-601.79346,1364.0C-601.79346,1364.9905,-600.9905,1365.7935,-600.0,1365.7935L1320.001,1365.7944C1320.4767,1365.7944,1320.9329,1365.6055,1321.2692,1365.2692C1321.6055,1364.9329,1321.7944,1364.4767,1321.7944,1364.001L1321.7935,64.0C1321.7935,63.009502,1320.9905,62.20654,1320.0,62.20654L-600.001,62.20554 Z"/>
</g>
<g style="fill:rgb(156,102,92); fill-opacity:1.0; stroke-linejoin: miter">
<path d="M-24.558567,215.52237L276.65582,215.52315L577.8705,215.52386Q577.8705,621.6886,577.87054,1027.8533Q276.65585,1027.8538,-24.5586,1027.8541Q-24.558598,621.6882,-24.558567,215.52237"/>
</g>
<g style="fill:rgb(255,255,255); fill-opacity:1.0; stroke-linejoin: miter">
<path d="M7.505312,250.09033L276.65607,250.09048L545.8067,250.0911Q545.80634,620.1317,545.8064,990.17163Q276.65543,990.1721,7.5050993,990.1727Q7.5052204,620.1315,7.505312,250.09033"/>
</g>
<g>
<g style="fill:rgb(125,139,150); fill-opacity:1.0; stroke-linejoin: miter">
<path d="M103.68345,779.5214L276.65616,779.5205L449.6283,779.52136Q449.62823,793.65955,449.62823,807.79956Q276.65616,807.80054,103.68345,807.8007Q103.68345,793.66034,103.68345,779.5214 Z"/>
</g>
<g style="fill:rgb(125,139,150); fill-opacity:1.0; stroke-linejoin: miter">
<path d="M140.26503,822.207L276.6559,822.2081L413.04654,822.20715Q413.04654,836.34534,413.04654,850.4855Q276.6559,850.4865,140.26503,850.48785Q140.26503,836.3465,140.26503,822.207 Z"/>
</g>
<g style="fill:rgb(125,139,150); fill-opacity:1.0; stroke-linejoin: miter">
<path d="M100.309425,864.8924L276.65628,864.8946L453.0022,864.89404Q453.0022,879.0319,453.0022,893.1724Q276.65628,893.17255,100.309425,893.17255Q100.309425,879.03204,100.309425,864.8924 Z"/>
</g>
<g style="fill:rgb(125,139,150); fill-opacity:1.0; stroke-linejoin: miter">
<path d="M162.8245,907.5793L390.48715,907.58124L390.48715,935.8575L162.8245,935.8597L162.8245,907.5793 Z"/>
</g>
<g style="fill:rgb(125,139,150); fill-opacity:1.0; stroke-linejoin: miter">
<path d="M103.68337,612.5491L276.6562,612.5481L449.62854,612.54816Q449.62854,626.6882,449.62854,640.8271Q276.6562,640.82776,103.68316,640.8287Q103.68337,626.6887,103.68337,612.5491 Z"/>
</g>
<g style="fill:rgb(125,139,150); fill-opacity:1.0; stroke-linejoin: miter">
<path d="M140.2649,655.2342L276.65582,655.23535L413.04678,655.2342Q413.04684,669.37396,413.04684,683.51385Q276.6559,683.5141,140.26491,683.515Q140.26491,669.3739,140.2649,655.2342 Z"/>
</g>
<g style="fill:rgb(125,139,150); fill-opacity:1.0; stroke-linejoin: miter">
<path d="M100.30915,697.92017L276.65634,697.92194L453.00262,697.9212Q453.00262,712.0601,453.00262,726.2Q276.65634,726.2001,100.30915,726.2001Q100.30915,712.0602,100.30915,697.92017 Z"/>
</g>
<g style="fill:rgb(125,139,150); fill-opacity:1.0; stroke-linejoin: miter">
<path d="M162.82425,740.60693L390.48734,740.60846L390.48734,768.8854L162.82425,768.8874L162.82425,740.60693 Z"/>
</g>
<g style="fill:rgb(125,139,150); fill-opacity:1.0; stroke-linejoin: miter">
<path d="M162.8246,570.18896L390.48703,570.1907L390.4869,598.46674L162.8246,598.4689L162.8246,570.18896 Z"/>
</g>
<g style="fill:rgb(125,139,150); fill-opacity:1.0; stroke-linejoin: miter">
<path d="M100.30956,527.50183L276.65613,527.5037L453.00214,527.50354Q453.00214,541.64136,453.00214,555.78174Q276.65613,555.78156,100.30953,555.78174Q100.30956,541.6415,100.30956,527.50183 Z"/>
</g>
<g style="fill:rgb(125,139,150); fill-opacity:1.0; stroke-linejoin: miter">
<path d="M103.683556,442.1307L276.656,442.1299L449.62817,442.1307Q449.62817,456.2689,449.62817,470.4089Q276.656,470.40997,103.683556,470.41003Q103.683556,456.26965,103.683556,442.1307 Z"/>
</g>
<g style="fill:rgb(125,139,150); fill-opacity:1.0; stroke-linejoin: miter">
<path d="M140.26514,484.81604L276.65588,484.81793L413.04648,484.81677Q413.04648,498.95532,413.04648,513.0945Q276.65576,513.0961,140.26514,513.0969Q140.26514,498.9558,140.26514,484.81604 Z"/>
</g>
</g>
<g>
<g style="fill:rgb(0,0,0); fill-opacity:1.0; stroke-linejoin: miter">
<path d="M358.09433,302.4872Q357.329,302.4872,356.28543,302.55673Q355.2418,302.62625,354.33725,302.76553Q354.19815,303.5309,354.1285,304.50485Q354.1285,305.47897,354.1287,306.24423Q354.1287,307.0096,354.1982,307.98367Q354.1982,308.9578,354.33737,309.79263Q355.24185,309.93198,356.28543,310.0015Q357.32907,310.0709,358.16397,310.0709Q358.92935,310.0709,359.973,310.0015Q360.94705,309.9318,361.78195,309.79263Q361.9211,308.9576,361.9907,307.98367Q361.9907,307.0096,361.9907,306.24423Q361.99063,305.4789,361.92105,304.50485Q361.92105,303.53073,361.78195,302.76553Q360.94693,302.62625,359.90335,302.55673Q358.8597,302.4872,358.09433,302.4872 Z M271.8202,322.8034Q276.48175,322.80328,278.5691,326.07343Q280.5868,329.34332,280.5868,334.9095Q280.58673,338.38812,279.68225,340.96246Q278.8473,343.46722,277.31665,345.13702Q275.8556,346.80682,273.76837,347.6419Q271.68115,348.40717,269.17633,348.40717Q266.9499,348.40717,265.5584,348.19867Q264.16687,347.98975,262.84485,347.5027L262.84485,333.03094Q262.84485,330.38702,263.61017,328.4389Q264.3756,326.56042,265.62793,325.3081Q266.88025,324.05585,268.48053,323.4295Q270.0808,322.8034,271.8202,322.8034 Z M331.3076,336.16174Q332.42087,336.16174,334.0211,336.30078Q335.62134,336.4401,336.66504,336.5793L336.66504,347.92007Q335.34308,348.26797,333.60373,348.47662Q331.93387,348.61584,330.3336,348.61584Q329.08133,348.61584,327.6898,348.47662Q326.2982,348.3376,325.11545,347.71143Q324.0021,347.0852,323.2368,345.9024Q322.47147,344.7196,322.47147,342.63226Q322.47153,339.3623,324.76755,337.76202Q326.99393,336.16193,331.3076,336.16174 Z M170.93515,322.45557Q175.73587,322.45557,178.03183,325.93433Q180.32791,329.34344,180.32791,335.5357Q180.32791,341.72803,178.03183,345.20667Q175.73587,348.68555,170.93515,348.68555Q166.13443,348.68555,163.83833,345.2067Q161.61201,341.728,161.61201,335.53568Q161.61195,329.3434,163.90791,325.86465Q166.13443,322.45557,170.93515,322.45557 Z M213.51561,316.81995Q211.49791,316.81995,209.82805,317.37646Q208.15831,317.93304,206.83623,318.83746Q205.58385,319.742,204.60991,320.9248Q203.70537,322.0379,203.07915,323.29047Q203.07915,322.10754,202.87047,320.36823Q202.66173,318.69836,202.45299,317.6548Q201.6876,317.51562,200.99187,317.44598Q200.3657,317.37646,199.60039,317.37646Q198.83507,317.37646,198.06969,317.44598Q197.37395,317.51562,196.60857,317.6548L196.60857,353.34692Q197.37389,353.4862,198.348,353.5559Q199.32207,353.62543,200.08739,353.62543Q200.8527,353.62543,201.82677,353.5559Q202.73131,353.4862,203.49663,353.34692L203.49663,335.1183Q203.49663,332.05695,204.19237,329.69135Q204.81853,327.39532,206.00139,325.8647Q207.11461,324.33405,208.64525,323.5688Q210.17595,322.8034,211.91533,322.8034Q214.97667,322.8034,216.36821,325.169Q217.75975,327.46497,217.75969,332.12653L217.75969,353.34705Q218.52495,353.4862,219.49907,353.55573Q220.40355,353.62543,221.16887,353.62543Q221.93425,353.62543,222.90825,353.55573Q223.81279,353.4862,224.57811,353.34705L224.57811,333.17017Q224.57817,328.16077,226.80455,325.58636Q228.96147,323.01215,232.50981,323.01215Q235.84943,323.01215,237.31055,325.44733Q238.7716,327.81274,238.7716,332.6136L238.7716,353.34705Q239.53699,353.4862,240.51099,353.5559Q241.41553,353.62543,242.18085,353.62543Q242.94617,353.62543,243.92017,353.55573Q244.89429,353.4862,245.65967,353.34705L245.65967,330.59576Q245.65967,323.77747,242.80707,320.29858Q240.02399,316.81995,233.83165,316.8199Q231.81395,316.8199,230.21373,317.3764Q228.61345,317.93304,227.36113,318.83746Q226.10869,319.742,225.06511,320.9248Q224.09105,322.10754,223.39531,323.29047Q222.21257,320.22906,219.91649,318.4897Q217.69011,316.81995,213.51561,316.81995 Z M351.34552,317.6547Q351.2063,318.2112,351.13678,318.9766Q351.06732,319.6724,351.06732,320.36826Q351.06732,321.06393,351.13684,321.82925Q351.20642,322.52505,351.34552,323.0815L355.868,323.0815L355.868,353.3471Q356.63327,353.48627,357.60745,353.5558Q358.512,353.6253,359.20773,353.6253Q359.97305,353.6253,360.94705,353.5558Q361.85147,353.48627,362.61685,353.347L362.6168,317.6547 Z M391.69968,316.81973Q389.54282,316.81973,387.7338,317.446Q385.92477,318.0026,384.53323,318.9766Q383.14188,319.8812,382.02866,321.06393Q380.98502,322.24673,380.2892,323.42935Q380.2892,322.24673,380.08047,320.4376Q379.87167,318.6984,379.663,317.65482Q378.89767,317.51553,378.20193,317.446Q377.5757,317.3763,376.81027,317.3763Q376.045,317.3763,375.2797,317.44595Q374.58383,317.51553,373.81857,317.65463L373.81863,353.3471Q374.58395,353.48627,375.55795,353.5558Q376.53214,353.62543,377.29745,353.62543Q378.06284,353.62543,379.03683,353.5558Q379.9413,353.48627,380.70657,353.3471L380.7067,335.25735Q380.7067,331.98727,381.54166,329.62167Q382.30698,327.3257,383.6288,325.86453Q384.95078,324.40353,386.69022,323.70786Q388.4296,323.012,390.37772,323.012Q393.71738,323.012,395.24802,325.37766Q396.77866,327.67355,396.77866,332.61343L396.77866,353.347Q397.54404,353.48608,398.51816,353.5558Q399.42258,353.6253,400.18796,353.6253Q400.95334,353.6253,401.9274,353.55566Q402.90134,353.48608,403.66672,353.347L403.66672,330.73465Q403.66672,323.8467,400.74454,320.29855Q397.82242,316.81973,391.69968,316.81973 Z M300.34628,302.06976Q299.58096,302.06976,298.60687,302.13916Q297.7024,302.20905,296.93707,302.34814L296.93707,344.09338Q296.93707,346.87634,297.70245,348.755Q298.46777,350.63367,299.78976,351.7469Q301.11172,352.86005,302.85104,353.34705Q304.59048,353.83405,306.6082,353.83405Q307.791,353.83405,309.18246,353.6949Q310.57394,353.62524,311.54807,353.27753Q311.54807,350.42493,310.9219,347.98975Q310.36526,348.12878,309.5303,348.1983Q308.76498,348.26794,308.1389,348.26794Q307.23434,348.26794,306.39944,348.05927Q305.63412,347.9201,305.00797,347.29388Q304.45126,346.73712,304.10336,345.62408Q303.75552,344.51093,303.75552,342.5628L303.75552,302.34802Q302.99014,302.20905,302.01614,302.13916Q301.1116,302.06976,300.34628,302.06976 Z M421.61725,308.81857L409.6503,322.17703L409.92862,323.1511L415.3555,323.1511L415.3555,343.39755Q415.35562,349.03323,418.20825,351.46848Q420.9912,353.90363,426.00067,353.90363Q427.74,353.90363,429.27075,353.69482Q430.8014,353.55566,432.19287,353.20776Q432.19287,352.09467,432.0537,350.6335Q431.9843,349.17252,431.49713,347.78098Q430.66223,347.9896,429.6186,348.19833Q428.57507,348.33762,427.39227,348.33762Q425.86157,348.33762,424.81787,347.9896Q423.8438,347.7114,423.2176,346.73715Q422.661,345.83273,422.38275,344.0934Q422.17395,342.3539,422.17407,339.43185L422.17407,323.1511L431.21893,323.1511Q431.35797,322.45523,431.4276,321.75955Q431.49713,321.06375,431.49713,320.29855Q431.49707,318.8373,431.21893,317.65445L422.17395,317.65445L422.17407,308.81857 Z M138.58234,316.82007Q134.26868,316.82007,130.9986,318.28113Q127.72858,319.74207,125.50217,322.24704Q123.34531,324.75162,122.232025,328.16086Q121.118805,331.57004,121.118805,335.53586Q121.118805,344.09372,125.6413,349.1727Q130.1637,354.1821,139.0694,354.18198Q144.35712,354.18198,148.46204,352.58176Q148.39246,351.05118,147.97504,349.59006Q147.55762,348.12894,147.00092,347.15482Q145.19208,347.8508,143.38312,348.12906Q141.64374,348.40732,139.5564,348.40732Q134.33826,348.40732,131.3465,345.27634Q128.35474,342.21506,128.35474,335.53586Q128.35474,329.69138,130.9986,326.14316Q133.64252,322.59488,138.99982,322.59488Q143.38312,322.59476,146.7923,323.7775Q147.34888,322.5947,147.69678,320.99435Q147.97504,319.46375,147.97504,318.28094Q145.9574,317.51556,143.73096,317.16785Q141.50458,316.82007,138.58234,316.82007 Z M170.93515,316.8199Q166.76059,316.8199,163.62965,318.281Q160.49873,319.74207,158.41144,322.24673Q156.32422,324.75156,155.28052,328.16068Q154.30646,331.56998,154.30646,335.53568Q154.30646,339.5015,155.35016,342.91068Q156.3241,346.31992,158.41144,348.82462Q160.49873,351.32938,163.62965,352.79044Q166.76059,354.18195,170.93509,354.18195Q175.10965,354.18195,178.24051,352.7209Q181.37155,351.3294,183.45883,348.82465Q185.54605,346.31995,186.58969,342.9107Q187.56375,339.50153,187.56375,335.5357Q187.56375,331.5699,186.52017,328.1607Q185.54611,324.7516,183.45883,322.24677Q181.37155,319.74213,178.24057,318.281Q175.10965,316.8199,170.93515,316.8199 Z M329.22037,316.8197Q326.5765,316.8197,323.7238,317.23724Q320.87125,317.65466,318.50552,318.42004Q318.50565,321.62048,319.82748,323.91638Q321.8453,323.29047,324.00223,322.87292Q326.08945,322.52502,328.52463,322.52502Q332.49045,322.52502,334.57776,324.1252Q336.66492,325.7255,336.66492,329.83035L336.66492,331.15237Q335.69092,331.01315,334.22983,330.8739Q332.83823,330.80444,330.61185,330.80444Q327.6201,330.80444,324.90665,331.5697Q322.1932,332.26538,320.10587,333.79633Q318.0186,335.25732,316.76627,337.55322Q315.58353,339.77966,315.58347,342.7716Q315.58347,345.8329,316.6271,347.98975Q317.6707,350.14642,319.61887,351.53802Q321.49747,352.92957,324.28055,353.55573Q326.99393,354.18195,330.40317,354.18195Q334.0211,354.18195,337.49988,353.5558Q340.9787,352.99908,343.41382,352.44257L343.41382,330.10855Q343.41382,323.1511,339.79596,319.9507Q336.17798,316.81973,329.22037,316.8197 Z M273.3509,316.8199Q271.2636,316.8199,269.52417,317.30695Q267.8543,317.794,266.46283,318.62878Q265.14087,319.46362,264.16693,320.5074Q263.19275,321.55096,262.497,322.66412Q262.497,322.45538,262.35785,321.69012Q262.28827,320.92474,262.1491,320.08972Q262.07953,319.25494,261.94037,318.4897Q261.8708,317.79382,261.8012,317.65466Q261.10547,317.5155,260.34015,317.44598Q259.57477,317.3764,258.8791,317.3764Q258.1137,317.3764,257.3484,317.44598Q256.65265,317.5155,255.95679,317.65466L255.95679,369.76697Q256.72217,369.90613,257.69623,369.9757Q258.6007,370.0453,259.36603,370.0453Q260.13135,370.0453,261.1054,369.9757Q262.00995,369.90613,262.84485,369.76697L262.84485,353.4167Q264.02765,353.76447,265.62793,353.97327Q267.22815,354.18195,268.75885,354.18195Q277.8733,354.18195,282.8828,348.96387Q287.82263,343.8152,287.82263,334.63116Q287.82263,330.03918,286.70947,326.62994Q285.6657,323.29047,283.7177,321.0639Q281.83905,318.90704,279.1256,317.86346Q276.48175,316.8199,273.3509,316.8199 Z"/>
</g>
</g>
<g style="fill:rgb(0,0,0); fill-opacity:1.0; stroke-linejoin: miter">
<path d="M74.60951,372.6793L276.65582,372.6798L478.70227,372.68048Q478.70227,376.34808,478.70227,380.0158Q276.65582,380.0161,74.60951,380.0167Q74.60951,376.34787,74.60951,372.6793"/>
</g>
<g style="fill:rgb(34,43,50); fill-opacity:1.0; stroke-linejoin: miter">
<path d="M406.15506,944.8604L467.74463,944.86053L529.33435,944.86066Q529.33435,949.5461,529.33435,954.23114Q467.74463,954.23114,406.15506,954.2314Q406.15506,949.54596,406.15506,944.8604"/>
</g>
<g style="fill:rgb(0,0,0); fill-opacity:1.0; stroke-linejoin: miter">
<path d="M118.32529,166.14903L276.65588,166.1496L434.98645,166.15016Q434.98645,212.08507,434.98645,258.02002Q276.65588,258.02054,118.32529,258.02106Q118.32529,212.085,118.32529,166.14903"/>
</g>
<g style="fill:rgb(255,183,159); fill-opacity:1.0; stroke-linejoin: miter">
<path d="M793.3516,695.06616C798.8066,697.6045,801.9599,702.74097,803.0684,711.1052C803.3405,713.2256,803.71735,715.4486,803.93414,716.069C804.1513,716.68835,804.31244,717.8367,804.33246,718.6272C804.3525,719.41724,804.74115,721.353,805.1961,722.9276C806.99884,729.09985,807.53925,731.5602,807.64545,734.35486C807.7176,735.9834,807.93085,738.4247,808.1274,739.8275C808.28424,741.2235,808.3934,742.6515,808.3348,742.9719C808.26886,743.3324,808.45123,744.36,808.72943,745.3225C809.0075,746.2848,809.2059,747.2328,809.16156,747.47314C809.1171,747.713,809.2901,748.5736,809.59015,749.416C809.85065,750.25073,810.06525,751.7815,810.0013,752.8048C809.9394,755.60986,810.4001,760.7472,810.90985,762.7046C811.3348,764.4397,812.8692,770.27264,814.0057,774.66534C814.3453,775.9703,814.79,777.3774,815.01044,777.7498C816.211,780.0002,817.1342,788.2464,816.76776,793.6047C816.6436,795.4039,816.6423,797.43256,816.7718,798.07794C816.894,798.7635,816.85834,800.0817,816.68097,801.04315C816.22284,803.5268,816.0632,815.1768,816.48126,816.9515C816.66144,817.77167,816.87994,819.5101,816.97845,820.7707C817.0771,822.0313,817.24225,824.50507,817.33307,826.2614C817.4633,828.02496,817.66656,829.8437,817.8328,830.28815C818.169,831.38556,817.914,838.8349,817.36017,843.41296C816.8426,847.79004,816.7978,851.17834,817.14594,853.5615C817.2968,854.5415,817.31866,855.9955,817.1705,856.7969C817.0229,857.5974,817.0009,859.292,817.0994,860.552C817.1978,861.81323,817.1326,864.8656,816.8901,867.3058C816.6871,869.7533,816.57623,871.9276,816.6921,872.1975C816.82587,872.5951,816.7751,873.99414,816.03937,882.9282C815.54205,889.6703,816.3005,892.29553,818.7674,892.1699C819.77264,892.1072,823.0638,889.9801,823.1822,889.33887C823.21844,889.1388,823.8947,888.3937,824.6833,887.7106C825.4715,887.02783,826.65155,885.7958,827.3348,885.01074C829.4135,882.4946,832.47626,878.4624,832.9046,877.71277C833.13873,877.3418,833.5369,876.75256,833.79584,876.46924C835.4472,874.70276,838.65106,869.4541,839.488,867.16455C839.8326,866.1926,840.48785,864.6571,840.99347,863.71484C842.3515,861.0661,845.8829,851.57,846.3111,849.24713C846.5655,848.0926,847.1485,846.5024,847.63153,845.68024C850.41437,841.14044,851.2807,838.6912,852.03375,833.0317C853.85126,820.03107,854.3007,814.89484,853.89716,813.0401C853.67413,812.00494,853.54913,809.538,853.58234,807.5567C853.66644,804.63116,853.8663,803.5496,854.6905,801.54816C855.93695,798.3822,860.0926,792.6875,862.9001,790.26416C866.5436,787.1255,871.2672,786.2156,874.92725,787.9259C876.7145,788.7936,879.5724,792.38525,879.36584,793.5067C879.2991,793.8673,879.4862,795.10254,879.7344,796.2251C880.1671,797.92004,880.09436,799.4397,879.37036,804.9388C878.859,808.61285,878.5133,812.7321,878.6304,814.1213C878.70703,815.5015,878.6144,817.8035,878.3479,819.24567C878.0824,820.68756,877.985,823.23785,878.1233,824.9609C878.2612,826.68427,878.2373,828.8338,878.07495,829.7144C877.9452,830.6436,877.8247,832.195,877.84033,833.233C877.8744,834.399,877.38367,836.83527,876.5563,839.7476C875.4579,843.6866,875.24646,845.0557,875.1575,848.684C875.10876,852.3193,874.47253,856.2194,871.1969,874.2114C866.6299,899.213,867.71155,896.265,860.71796,903.42456C855.7546,908.556,855.3304,909.05725,853.2293,911.6937C852.2574,912.9221,850.47064,915.2023,849.1838,916.78735C847.93805,918.38025,846.61896,919.9177,846.232,920.2195C845.8527,920.48083,845.52386,920.917,845.48663,921.11694C845.4423,921.3574,844.8143,922.06946,844.11273,922.7274C843.01764,923.7269,839.16046,928.0269,835.98895,931.74945C834.9841,932.9311,830.1451,939.41095,828.1197,942.309C826.4307,944.73126,824.8753,947.55023,824.691,948.5522C824.6093,948.9925,824.1518,949.9024,823.68353,950.644C823.2231,951.3464,822.08,953.9517,821.1673,956.43414C819.65985,960.33966,819.44305,961.2934,819.4589,963.45026C819.48834,964.8637,819.48773,966.8923,819.4815,968.05133C819.482,969.1695,819.6163,970.68524,819.81134,971.42535C819.9738,972.11774,820.1783,973.481,820.2558,974.4058C820.3337,975.3317,820.613,977.4129,820.9256,979.0854C821.24567,980.7182,821.49603,982.9594,821.49603,984.07745C821.56085,986.20197,822.40717,991.49316,822.8426,992.27783C822.9987,992.5547,823.41534,994.7854,823.7557,997.209C824.64374,1003.62695,824.97076,1005.2189,825.3874,1006.3314C825.6193,1006.8706,825.7874,1007.97876,825.8072,1008.76917C825.8272,1009.5598,826.28485,1011.7977,826.7934,1013.7555C827.3349,1015.76013,827.69806,1017.60815,827.64655,1017.8883C827.59454,1018.16895,827.8006,1019.0764,828.1082,1019.8788C828.4161,1020.6813,828.63605,1021.5083,828.5987,1021.70886C828.4589,1022.4697,831.8597,1035.0242,832.3212,1035.4408C832.4598,1035.5903,832.61395,1036.3231,832.6015,1037.0659C832.6816,1038.6549,833.6801,1042.8977,834.24615,1043.8718C834.46735,1044.2437,834.6954,1045.0316,834.7519,1045.622C834.809,1046.212,835.1523,1047.2692,835.4417,1047.9438C835.77155,1048.6259,836.9393,1052.4028,838.0444,1056.2928C841.0313,1066.8247,842.02435,1069.0781,848.3588,1079.6473C856.2758,1092.8691,859.2099,1096.2678,865.1952,1099.5244C866.9669,1100.4724,869.22253,1101.7168,870.27,1102.3239C871.2853,1102.8839,873.5803,1104.1356,875.353,1105.0834C877.1172,1106.0709,878.7865,1107.124,879.0952,1107.4712C879.35706,1107.8508,879.79285,1108.1796,879.9929,1108.2163C880.1935,1108.2537,881.7731,1110.2427,883.4945,1112.5892C885.2081,1114.9756,886.71484,1116.9106,886.87537,1116.9401C886.9956,1116.9619,887.97107,1118.6333,889.04834,1120.6537C890.09314,1122.6274,891.1011,1124.3453,891.24646,1124.4548C891.3922,1124.5642,892.4509,1126.4579,893.5635,1128.734C894.68445,1130.9695,896.34534,1134.0923,897.2627,1135.6279C898.1809,1137.164,899.05493,1138.9408,899.2717,1139.5604C899.96643,1141.6346,905.0421,1151.392,906.9298,1154.1837C907.70654,1155.362,908.85254,1157.2301,909.4697,1158.3795C911.35205,1161.8737,915.49536,1191.4788,911.0421,1191.0729C906.5503,1190.7034,904.00366,1188.5818,903.80554,1188.6271C887.26526,1192.3501,887.20483,1175.8107,836.09503,1166.3884C786.4279,1157.2319,745.80225,1149.5769,745.8318,1149.4163C745.8688,1149.2163,745.53467,1148.7819,745.058,1148.446C744.6293,1148.0767,742.7855,1146.6185,741.0226,1145.1755C739.2195,1143.7251,736.59094,1141.5834,735.13574,1140.4867C733.68835,1139.3503,732.3363,1138.1482,732.14844,1137.8235C731.9592,1137.4993,731.683,1137.2,731.4828,1137.1631C731.2024,1137.1112,729.3815,1135.5328,727.2333,1133.4799C723.5696,1129.9886,721.6727,1128.1482,721.24097,1127.5715C720.4674,1126.6005,714.8821,1122.299,713.1904,1121.366C712.3605,1120.9233,711.28015,1120.2681,710.77893,1119.8445C710.23706,1119.4136,709.6002,1119.0474,709.3998,1119.0105C708.95935,1118.9293,702.8789,1114.6196,701.15576,1113.1837C700.65393,1112.7596,699.2068,1111.6232,697.89795,1110.6366C696.58875,1109.6498,694.87317,1108.1736,694.06256,1107.4033C693.25946,1106.5924,692.0778,1105.5878,691.38275,1105.0867C690.72125,1104.633,689.4672,1103.5741,688.5838,1102.7487C687.7005,1101.9231,686.0981,1100.509,684.97406,1099.6394C683.85834,1098.7296,682.2476,1097.356,681.40485,1096.5378C680.1473,1095.2708,677.70416,1093.2466,674.268,1090.5422C672.2389,1088.967,662.87085,1082.2704,662.5908,1082.2185C662.3905,1082.1814,662.0741,1081.8741,661.8927,1081.5098C661.67175,1081.1382,661.057,1080.6521,660.526,1080.3885C659.98755,1080.1647,657.55774,1078.5155,655.1111,1076.7394C652.67053,1074.9227,650.2815,1073.281,649.8301,1073.0323C649.339,1072.7759,648.22266,1071.8662,647.3473,1071.0009C646.4779,1070.0952,645.43176,1069.0322,645.0099,1068.6234C643.53467,1067.1919,641.4741,1065.1141,639.73737,1063.3031C638.7563,1062.335,637.1174,1060.6663,636.0632,1059.6436C635.002,1058.6613,633.49384,1057.182,632.7237,1056.4191C631.9528,1055.6556,630.7531,1054.5228,630.07367,1053.9424C627.0638,1051.3994,621.17804,1046.2555,619.72784,1044.9119C618.84454,1044.0858,617.57245,1042.8988,616.8924,1042.3182C615.67804,1041.2656,612.7022,1038.3148,611.64496,1037.0847C611.3764,1036.7454,609.97015,1035.1613,608.5793,1033.4962C607.1807,1031.872,605.56415,1030.0831,605.0041,1029.5244C602.6451,1027.267,602.118,1026.7554,601.18756,1025.9626C600.64606,1025.5316,599.69,1024.6512,599.02496,1023.9905C598.3929,1023.37683,596.5965,1021.88574,595.03656,1020.68713C593.15326,1019.2219,591.48895,1017.4657,590.01154,1015.3711C587.2349,1011.33875,586.7861,1008.60547,587.6607,1000.93896C588.02484,998.06555,588.15155,995.35535,588.0324,994.8782C587.86615,994.4331,587.86615,992.8594,587.9643,991.42786C588.2204,988.245,587.7852,982.7395,587.18695,981.7174C586.97296,981.3055,586.7065,980.05524,586.58575,978.9146C585.8343,970.41034,585.3881,967.8847,584.2452,964.6503C582.81635,960.4937,580.1905,951.1469,579.6407,948.0634C577.987,939.0617,578.21625,936.2458,580.65875,934.00397C582.1956,932.63104,585.2254,931.69867,587.0677,932.0384C588.4693,932.29645,591.61957,931.3864,592.19696,930.4992C592.4168,930.20807,593.321,926.6475,594.23456,922.5915C596.0168,914.71954,598.6103,906.045,600.25104,902.5372C600.80023,901.3548,601.3433,899.7569,601.4764,899.03595C601.9488,896.47235,604.84576,893.11316,608.94354,890.43066C611.023,889.03357,612.9244,887.9343,613.12396,887.97144C613.3643,888.0155,614.356,887.5773,615.4108,887.0261C616.41754,886.50793,617.74164,885.8406,618.2812,885.60913C618.8211,885.37683,620.9797,884.4497,623.0512,883.54724C629.4401,880.7909,630.7751,880.2916,632.7796,879.7501C633.60004,879.5703,635.9078,878.9601,637.83246,878.40393C639.78973,877.8948,641.5653,877.47656,641.80566,877.521C642.24634,877.6022,647.95105,876.0862,651.91785,874.78796C653.2374,874.3685,656.6023,873.4149,659.3473,872.67847C662.09973,871.9022,665.11426,871.0497,665.9895,870.797C668.1045,870.10986,671.02783,870.64905,673.9926,872.3141C676.62726,873.7521,680.11444,876.176,680.89557,877.1068C681.4733,877.79285,688.05096,882.7748,692.33856,885.8014C693.95306,886.9276,695.5283,888.04626,695.81177,888.3054C696.09534,888.5648,697.40454,889.55164,698.7207,890.49817C700.03735,891.44495,701.4922,892.5416,702.001,892.92505C702.5027,893.34863,704.0149,894.5807,705.42163,895.7097C706.79675,896.7914,708.5852,898.322,709.3556,899.0852C712.15344,901.8789,714.5177,903.4335,716.5133,903.84265C718.942,904.37305,719.9337,903.9347,724.0293,900.5895C726.8147,898.2866,727.90393,896.87256,729.82983,892.71326C730.85144,890.5409,732.03894,881.855,731.5581,880.1929C731.3231,879.4457,730.66797,876.2599,730.0925,873.08923C729.47754,869.91077,728.6426,865.9054,728.2018,864.25073C727.7687,862.5554,727.3583,860.74023,727.2937,860.18945C727.2294,859.6394,726.69434,858.0497,726.12195,856.6605C724.6555,853.1598,724.60474,852.98474,723.03406,847.35266C721.15186,840.7104,720.7654,839.4383,720.1383,838.12115C719.78345,837.35187,719.3091,834.53094,718.8672,830.63947C718.7102,829.2436,718.5503,827.64044,718.4535,827.04254C718.2427,825.26434,715.9839,817.9727,715.2041,816.58636C714.801,815.8497,714.0585,814.26276,713.60925,813.1037C713.1277,811.89655,712.44714,810.1973,712.0414,809.2525C710.27747,805.1176,709.43335,803.18134,709.18713,802.7211C709.02356,802.4838,708.74097,801.7691,708.56396,801.1569C708.37976,800.5843,707.7197,799.22015,707.0808,798.19135C705.9497,796.2431,704.6554,793.6026,703.609,790.9661C702.1139,787.1705,701.23254,785.43414,699.8976,783.241C697.6146,779.67316,694.932,774.457,692.89594,769.7741C690.9582,765.2339,689.1265,761.9142,685.7153,756.6056C684.56085,754.77783,682.8378,751.7678,681.8588,749.88916C675.5289,737.49866,672.85504,732.9053,671.89294,732.72797C671.3729,732.63226,668.53796,726.8913,668.062,724.98096C667.7655,723.8911,667.26465,721.8938,666.9326,720.5482C666.60046,719.2035,666.3638,717.7931,666.423,717.4723C666.48157,717.152,666.3506,715.8436,666.13086,714.56104C665.2146,709.422,666.6162,702.2672,669.21216,698.52136C673.1457,692.91,682.18085,691.30316,686.85944,695.3551C688.75336,696.98804,691.7746,700.8169,692.83,702.95825C693.2828,703.87,694.88,706.4424,696.33484,708.6571C697.78296,710.91174,699.7208,713.8784,700.62866,715.2468C701.56836,716.6625,703.1443,718.89966,704.1941,720.17004C705.23596,721.48047,706.85486,723.9324,707.7434,725.62854C708.6714,727.3319,710.58777,730.41846,712.0254,732.506C713.43005,734.546,715.3535,737.5924,716.24915,739.24854C717.7761,741.97375,720.2328,745.9468,722.31604,749.0233C722.77356,749.6876,723.35767,750.78906,723.6073,751.45593C723.897,752.13086,724.4852,752.9846,724.9541,753.36145C727.0409,755.0714,732.2009,760.32947,733.7484,762.2711C738.7417,768.65924,744.23254,777.2917,745.66223,780.99286C747.0349,784.55914,752.74976,793.7719,760.6233,805.2045C765.5239,812.3205,766.844,814.5931,768.6651,819.3189C768.88275,819.93854,769.4311,821.90375,769.8094,823.67145C771.64764,831.6724,772.517,833.6961,774.11896,833.9919C774.7603,834.1098,775.5252,834.002,775.8249,833.7265C776.80316,832.91254,777.4771,829.93036,777.50836,826.1674C777.5091,824.1385,777.8643,820.64215,778.28485,818.35895C778.69855,816.1158,778.9664,813.7631,778.8298,813.1579C778.73285,812.56024,778.8299,810.0103,779.0478,807.4825C779.26483,804.955,779.37604,801.207,779.29,799.2028C779.2515,797.16644,779.31134,794.8167,779.47394,793.93536C779.6368,793.0544,779.70013,790.9124,779.57697,789.1086C779.4865,787.3525,779.4196,783.4471,779.46356,780.5147C779.543,774.68976,779.5002,772.9013,779.23846,770.9477C779.1243,770.2225,778.882,767.9414,778.6431,765.86755C778.45184,763.7622,778.0892,761.459,777.86163,760.67114C777.66693,759.931,777.4626,758.5681,777.41705,757.68994C777.3204,753.94495,776.9355,749.06934,776.70026,748.3225C776.5335,747.8772,776.4908,746.0884,776.5535,744.4021C776.66364,742.68274,776.58466,740.6389,776.4371,739.8666C776.24225,739.12634,776.1623,737.53796,776.20123,736.4269C776.26276,735.19556,775.7159,732.3198,774.86383,729.3052C773.91315,726.1482,773.39154,723.35974,773.4318,721.7937C773.45,720.3474,774.2369,715.85364,775.33514,710.7965C777.1192,702.469,777.2181,702.1559,778.7354,699.9923C780.6762,697.3268,784.1668,695.23694,787.9759,694.5716C790.62946,694.1086,791.4849,694.1838,793.3516,695.06616L793.35785,695.06726 Z M648.2848,918.30865C646.58276,918.7817,644.87256,919.29486,644.5154,919.43646C641.90857,920.32245,639.20026,920.8587,637.42645,920.82135C633.8057,920.69257,631.7116,921.7142,629.49677,924.7436C627.3515,927.6198,625.4865,930.5478,625.3829,931.1086C625.33124,931.38934,624.71246,932.7243,623.9809,933.99774C622.6047,936.51935,620.8378,938.0153,617.6868,939.3809C613.51166,941.13776,609.4406,943.45184,609.04486,944.2486C608.0378,946.341,609.3554,948.40607,613.71185,951.73517C616.435,953.8112,618.7254,957.3398,621.3732,963.419C621.7712,964.4035,623.94867,967.8698,626.12286,971.128C628.2972,974.38715,630.409,977.7586,630.78986,978.6148C632.24554,981.94836,632.95404,984.3983,632.7839,985.3197C632.356,987.64294,632.6696,988.8606,633.9676,990.1349C634.7049,990.8507,635.80304,991.6328,636.4146,991.91125C637.3786,992.29626,638.33185,992.9689,642.93896,996.5099C643.5134,996.9884,644.54236,997.92346,645.1998,998.6251C645.85693,999.3257,646.9042,1000.3889,647.54395,1000.9619C648.1837,1001.53564,649.7717,1003.02966,651.10974,1004.3114C654.053,1007.21484,659.8948,1012.1438,660.4159,1012.2394C660.6561,1012.28394,661.00464,1012.6382,661.2261,1013.01C661.8827,1014.1664,666.4061,1014.79333,669.063,1014.0823C670.9807,1013.5659,675.50433,1011.0454,679.5289,1008.3085C680.15314,1007.8436,681.9809,1006.68933,683.52484,1005.73157C685.06793,1004.77405,688.0783,1002.59546,690.20306,1000.95715C692.29425,999.2722,694.26886,997.77295,694.5456,997.6167C696.6587,996.2666,704.3048,988.93787,705.67993,986.872C706.7435,985.36945,707.05896,982.98456,706.3772,981.7404C706.07263,981.1462,705.0647,978.9722,704.1632,976.9007C703.2615,974.8294,702.3696,972.92584,702.2213,972.6086C700.6616,969.836,699.3063,966.85284,698.6189,964.7382C698.1747,963.3305,697.6167,961.86127,697.4031,961.4488C697.14185,961.0693,696.9896,960.5444,697.02686,960.3443C697.1969,959.42303,692.68353,952.00616,690.13666,948.96906C689.7955,948.57465,688.74554,947.3044,687.83405,946.1833C686.1413,944.1318,683.0732,941.4544,682.23236,941.299C681.2707,941.1219,672.0853,934.3344,669.4429,931.8177C668.31604,930.7404,667.2799,929.8453,667.11975,929.81537C666.9999,929.79376,666.31995,929.21295,665.6472,928.59186C664.9425,927.9235,662.973,926.0279,661.2135,924.337C655.9364,919.26385,654.23096,917.95575,652.5563,917.60516C651.9155,917.48724,649.9949,917.7956,648.2848,918.30865L648.2909,918.30975 Z"/>
</g>
<g style="fill:rgb(255,255,255); fill-opacity:1.0; stroke-linejoin: miter">
<path d="M739.4912,1236.4222L910.82947,1170.3693L869.1926,1062.3666L866.5088,1055.4061L695.16895,1121.4594L739.4912,1236.4222"/>
</g>
<g style="fill:rgb(0,0,0); fill-opacity:1.0; stroke-linejoin: miter">
<path d="M765.3533,1014.9912L561.06915,898.6882L546.85,923.31573L752.2866,1038.2338L764.46387,1027.9136 Z"/>
</g>
<g style="fill:rgb(0,0,0); fill-opacity:1.0; stroke-linejoin: miter">
<path d="M700.60156,1189.975L799.19965,1150.8784L897.7977,1111.782Q959.6785,1243.8541,1021.55896,1375.9261Q902.80493,1376.0039,784.05115,1376.0819L700.60156,1189.975"/>
</g>
<g style="fill:rgb(0,0,0); fill-opacity:1.0; stroke-linejoin: miter">
<path d="M549.2942,924.9726L549.2942,924.9727L521.88074,893.9678Q542.17957,897.0451,562.47833,900.1224L549.2942,924.9726"/>
</g>
<g style="fill:rgb(0,0,0); fill-opacity:1.0; stroke-linejoin: miter">
<path d="M584.57306,1074.8661L584.5728,1074.8663L584.5727,1074.8665L584.57306,1074.8661"/>
</g>
<g style="fill:rgb(0,0,0); fill-opacity:1.0; stroke-linejoin: miter">
<path d="M459.39523,922.13513C459.54272,922.58673,459.80313,922.9985,460.15784,923.32825L460.15784,923.32825Q459.53506,922.74945,459.39062,922.13513 Z M499.21582,931.156Q499.58585,931.156,500.0077,931.2425L500.00748,931.2425C499.81738,931.20355,499.62698,931.1847,499.4387,931.1847C498.6028,931.1847,497.8092,931.5566,497.27414,932.1934L497.27414,932.1934Q497.93442,931.156,499.21582,931.156 Z M458.3714,920.0068Q459.24542,920.1642,459.25558,921.28265L459.25558,921.2827C459.25668,921.4048,459.2657,921.5259,459.28226,921.64545L459.27765,921.64545Q458.70706,922.9063,456.25748,926.22797L456.253,926.22797L450.82172,932.8764L450.82172,932.8764Q450.66653,931.5151,450.77026,929.9362L450.76578,929.9362Q451.61377,923.3974,458.3668,920.0068 Z M466.05096,935.5309Q467.1574,935.5309,468.09253,936.74854L468.0911,936.74854C467.56473,936.0904,466.77032,935.69965,465.9237,935.68726C465.90988,935.6871,465.8961,935.68695,465.88226,935.68695C465.46985,935.68695,465.06808,935.777,464.70242,935.9449L464.70242,935.9449Q465.40582,935.5309,466.05096,935.5309 Z M432.7071,910.15845C431.6846,910.15845,430.69745,910.71466,430.19406,911.685Q413.8439,943.20135,429.91302,951.5377L429.9131,951.5377Q430.98306,952.0928,432.1902,952.5276L432.18848,952.5276Q433.73212,953.11383,435.32352,953.11383Q439.6235,953.11383,444.2722,948.834L444.27115,948.834Q446.57468,946.80255,448.4626,944.7006C448.4922,944.66766,448.52072,944.6344,448.54874,944.6001L449.85242,943.0043L449.8569,943.0043Q451.4407,944.3469,453.54813,945.29895C453.71198,945.373,453.88266,945.4312,454.0576,945.47284Q455.88553,945.90796,457.5824,945.90796Q463.46338,945.90796,467.77032,940.6818L467.76562,940.6818Q467.93982,940.5427,468.1192,940.36426L468.1193,940.3642Q469.33405,939.1558,474.91733,931.36694C475.001,931.2502,475.07562,931.1274,475.1406,930.9994L475.14536,930.9994Q475.18027,937.4665,475.77048,941.7289C475.942,942.9676,476.90662,943.94666,478.14267,944.13654C478.28687,944.1587,478.43073,944.1695,478.57327,944.1695C479.6527,944.1695,480.6552,943.55023,481.12817,942.55194L487.3151,929.49365L487.311,929.49365Q487.38272,929.36035,487.45047,929.2405L487.45535,929.2405Q491.1778,934.66345,493.1393,936.4202L493.13446,936.4202Q495.16263,938.39307,497.65063,938.39307Q497.6573,938.39307,497.66394,938.39307L497.66574,938.393Q499.63614,938.3876,501.02835,936.74866L501.0285,936.74854Q501.3796,936.33514,501.68234,935.81647L501.6773,935.81647Q501.96695,935.4484,502.20172,934.95074L502.20175,934.95074Q502.6255,934.05255,503.48383,931.0364L503.48886,931.0364Q505.34042,934.1018,507.58383,937.082L507.58386,937.082C508.13974,937.8204,508.98755,938.2095,509.8457,938.2095C510.4379,938.2095,511.03503,938.02423,511.5446,937.6406C512.7926,936.7012,513.04266,934.92786,512.1032,933.6799Q508.35303,928.6982,505.80804,923.4884C505.40366,922.66064,504.6215,922.08167,503.7117,921.9367Q503.1886,921.85333,502.72488,921.85333Q500.1248,921.85333,499.39273,924.47406L499.37872,924.5261Q497.7221,930.92505,497.17593,932.32385L497.17096,932.32385C497.1521,932.3492,497.13364,932.37494,497.11557,932.401L497.11557,932.401Q497.07544,932.36273,497.0331,932.3201C496.9943,932.28107,496.9543,932.2431,496.9133,932.20636Q495.22864,930.6976,491.16602,924.633C491.077,924.5001,490.9769,924.37506,490.86676,924.2591L490.86212,924.2542L490.86215,924.2542Q489.44522,922.7569,487.6396,922.7569Q487.1675,922.7569,486.66885,922.85925L486.66492,922.85925Q485.6104,923.06256,484.67566,923.7942L484.6756,923.7942Q483.42908,924.76984,482.32956,926.81323C482.3067,926.8557,482.2849,926.8988,482.26425,926.94244L480.79736,930.03845L480.79736,930.03845Q480.8036,924.6628,481.19125,917.6903C481.2664,916.33905,480.3738,915.1239,479.06195,914.7915C478.83023,914.7328,478.5969,914.7045,478.36658,914.7045C477.29294,914.7045,476.28458,915.3187,475.80917,916.3265L470.16107,928.2991L470.15637,928.2991Q465.402,934.92664,464.29236,936.1794L464.28772,936.1794C464.04956,936.3419,463.83496,936.5418,463.65323,936.77454Q460.9669,940.21454,457.3582,940.21454Q456.52335,940.21454,455.63913,940.0304L455.63455,940.0304Q454.39935,939.4335,453.47516,938.57526L453.47064,938.57526L460.72424,929.6961C460.7538,929.6599,460.78247,929.623,460.8102,929.5854Q464.27612,924.8856,464.85886,922.8222L464.8589,922.82214Q465.22388,921.5297,464.89175,920.5244L464.88712,920.5244Q464.49527,914.3239,458.11182,914.3239Q458.05148,914.3239,457.99057,914.32446L457.99036,914.32446Q457.82083,914.326,457.64584,914.33307C457.27258,914.3481,456.90598,914.4369,456.56723,914.5944Q446.43478,919.3055,445.15457,929.21924C445.14786,929.27124,445.14258,929.3234,445.13876,929.37573Q444.75806,934.5948,446.3785,938.32074L446.37405,938.32074L444.16794,941.02124L444.16348,941.02124Q442.53058,942.8268,440.52963,944.5913L440.47964,944.6365Q437.45697,947.4328,435.28238,947.4328Q434.69583,947.4328,434.171,947.2294L434.10724,947.20557Q433.25424,946.8983,432.51794,946.51636L432.518,946.51636Q421.47018,940.785,435.21536,914.29C435.93472,912.9034,435.3938,911.19617,434.0072,910.4768C433.5909,910.26086,433.14575,910.15845,432.7071,910.15845 Z"/>
</g>
</g>
</svg>